# xmcd
#
# Track frame offsets:
#	150
#	9116
#	25441
#	38561
#	53653
#	68738
#	83090
#	94865
#	106399
#	121847
#	132852
#	143611
#	154817
#	165900
#	175732
#	183083
#	196444
#	205987
#	222912
#	235148
#	247838
#	256620
#	266042
#	278579
#	290880
#	302147
#
# Disc length: 4159 seconds
#
# Revision: 0
# Processed by: cddbd v1.5.2PL0 Copyright (c) Steve Scherf et al.
# Submitted via: audiograbber 1.83.01
#
DISCID=5a103d1a
DTITLE=Diverse kunstnere Country - Perfect for Parties Vol.2
DYEAR=2007
DGENRE=Country
TTITLE0=Desperato 5 - Let´s dance
TTITLE1=Mystery Gang - Voodoo Doll
TTITLE2=Pep Torres - Nikki Nikki
TTITLE3=Jason Lee Wilson And His Round Up Boys - I took a little trip
TTITLE4=Star Moubtain Dreamer - Maldito
TTITLE5=The Mad Men - It´s time to howl
TTITLE6=Raybon Anthony and his Round Up Boys - I don´t sing Hank Williams anymo
TTITLE6=re
TTITLE7=45 RPM - That tells a tale
TTITLE8=Georgs And The Hustlers - Rain of Love
TTITLE9=Kieron McDonald and His Roun Up Boys - Monday Morning´s comin´
TTITLE10=Johnny Law And The Pistol Packin Daddies - Izabella
TTITLE11=Pete Hutton - Back with a vengance
TTITLE12=Eddy And The Backfires - Sometimes I wonder
TTITLE13=Spo-Dee-O-Dee - Don´t go pretty baby
TTITLE14=Ike and The Cappers - Watcha thinkin´ of that
TTITLE15=Littel Neal And The Blue Flames - Cat Shack
TTITLE16=Max Panconi Trio - Do it
TTITLE17=Dig Wayne And The Chisselers - Shack Rouser
TTITLE18=Blisters And The Chisselers - The Jerk
TTITLE19=Wailin Elroys - It´s the law
TTITLE20=The Round Up Boys - Whirlwind Mary
TTITLE21=Glenn Rich And The Poor Boys - Rock and Roll Daddy-O
TTITLE22=Glenn Honeycultt - Promise me Love
TTITLE23=Flatfoot Shakers - Greasy Hair
TTITLE24=Missippi Queen - Boppin 747
TTITLE25=Cerry Casino and the Gamblers - The Party´s going on
EXTD=
EXTT0=
EXTT1=
EXTT2=
EXTT3=
EXTT4=
EXTT5=
EXTT6=
EXTT7=
EXTT8=
EXTT9=
EXTT10=
EXTT11=
EXTT12=
EXTT13=
EXTT14=
EXTT15=
EXTT16=
EXTT17=
EXTT18=
EXTT19=
EXTT20=
EXTT21=
EXTT22=
EXTT23=
EXTT24=
EXTT25=
PLAYORDER=
